<mxfile host="Electron" agent="Mozilla/5.0 (Macintosh; Intel Mac OS X 10_15_7) AppleWebKit/537.36 (KHTML, like Gecko) draw.io/21.1.2 Chrome/106.0.5249.199 Electron/21.4.3 Safari/537.36" modified="2024-07-28T00:06:24.298Z" etag="F5fDXW453HpfG6BKseva" version="21.1.2" type="device" pages="2">
  <diagram id="5ZruKXpPlvTqBJEBqCR5" name="类图">
    <mxGraphModel dx="993" dy="626" grid="1" gridSize="10" guides="1" tooltips="1" connect="1" arrows="1" fold="1" page="1" pageScale="1" pageWidth="827" pageHeight="1169" math="0" shadow="0">
      <root>
        <mxCell id="0" />
        <mxCell id="1" parent="0" />
        <mxCell id="ZAFrgoKh-T77m-U7ydel-9" value="&lt;p style=&quot;margin: 4px 0px 0px; text-align: center; line-height: 120%;&quot;&gt;&lt;i&gt;&amp;lt;&amp;lt;Interface&amp;gt;&amp;gt;&lt;/i&gt;&lt;br&gt;&lt;b&gt;&lt;font color=&quot;#0000ff&quot;&gt;DB&lt;/font&gt;&lt;/b&gt;&lt;/p&gt;&lt;hr style=&quot;border-style: solid; line-height: 120%;&quot; size=&quot;1&quot;&gt;&lt;p style=&quot;margin: 0px 0px 0px 4px; line-height: 120%;&quot;&gt;&lt;/p&gt;&lt;p style=&quot;margin: 0px 0px 0px 4px; line-height: 120%;&quot;&gt;（普通函数）&lt;/p&gt;&lt;p style=&quot;margin: 0px 0px 0px 4px; line-height: 120%;&quot;&gt;+ Open(Options, string, DB**): Status&lt;br&gt;&lt;br&gt;&lt;/p&gt;&lt;p style=&quot;margin: 0px 0px 0px 4px; line-height: 120%;&quot;&gt;（纯虚函数/接口）&lt;/p&gt;&lt;p style=&quot;margin: 0px 0px 0px 4px; line-height: 120%;&quot;&gt;+ Put(WriteOptions, Slice, Slice): Status&lt;/p&gt;&lt;p style=&quot;margin: 0px 0px 0px 4px; line-height: 120%;&quot;&gt;+ Delete(WriteOptions, Slice): Status&lt;/p&gt;&lt;p style=&quot;margin: 0px 0px 0px 4px; line-height: 120%;&quot;&gt;+ Write(WriteOptions, WriteBatch*): Status&lt;/p&gt;&lt;p style=&quot;margin: 0px 0px 0px 4px; line-height: 120%;&quot;&gt;+ Get(ReadOptions, Slice, string*): Status&lt;/p&gt;&lt;p style=&quot;margin: 0px 0px 0px 4px; line-height: 120%;&quot;&gt;+ NewIterator(ReadOptions): Iterator*&lt;/p&gt;&lt;p style=&quot;margin: 0px 0px 0px 4px; line-height: 120%;&quot;&gt;+ GetSnapshot(): Snapshot*&lt;/p&gt;&lt;p style=&quot;margin: 0px 0px 0px 4px; line-height: 120%;&quot;&gt;+ ReleaseSnapshot(Snapshot*): void&lt;/p&gt;&lt;p style=&quot;margin: 0px 0px 0px 4px; line-height: 120%;&quot;&gt;+ GetProperty(Slice, string*): bool&lt;/p&gt;&lt;p style=&quot;margin: 0px 0px 0px 4px; line-height: 120%;&quot;&gt;+ GetApproximateSizes(Range*, int, uint64_t*)&lt;/p&gt;&lt;p style=&quot;margin: 0px 0px 0px 4px; line-height: 120%;&quot;&gt;+ CompactRange(Slice*, Slice*): void&lt;/p&gt;&lt;p style=&quot;margin: 0px 0px 0px 4px; line-height: 120%;&quot;&gt;&lt;br&gt;&lt;/p&gt;" style="verticalAlign=top;align=left;overflow=fill;html=1;hachureGap=4;fontFamily=Comic Sans MS;fillColor=#dae8fc;strokeColor=#6c8ebf;rounded=0;glass=0;shadow=1;labelBackgroundColor=none;labelBorderColor=none;whiteSpace=wrap;spacingTop=0;spacingBottom=0;" parent="1" vertex="1">
          <mxGeometry x="130" y="90" width="280" height="260" as="geometry" />
        </mxCell>
        <mxCell id="ZAFrgoKh-T77m-U7ydel-17" value="include/leveldb/db.h" style="text;strokeColor=none;align=center;fillColor=none;html=1;verticalAlign=middle;whiteSpace=wrap;rounded=0;fontSize=16;fontFamily=Comic Sans MS;" parent="1" vertex="1">
          <mxGeometry x="190" y="50" width="180" height="30" as="geometry" />
        </mxCell>
        <mxCell id="ZAFrgoKh-T77m-U7ydel-22" value="&lt;p style=&quot;margin:0px;margin-top:4px;text-align:center;&quot;&gt;&lt;b&gt;&lt;font color=&quot;#3333ff&quot;&gt;DBImpl&lt;/font&gt;&lt;/b&gt;&lt;/p&gt;&lt;hr style=&quot;border-style:solid;&quot; size=&quot;1&quot;&gt;&lt;p style=&quot;margin:0px;margin-left:4px;&quot;&gt;- env_: Env*&lt;/p&gt;&lt;p style=&quot;margin:0px;margin-left:4px;&quot;&gt;- options_: Options&lt;br&gt;&lt;/p&gt;&lt;p style=&quot;margin:0px;margin-left:4px;&quot;&gt;- dbname_: string&lt;/p&gt;&lt;p style=&quot;margin:0px;margin-left:4px;&quot;&gt;- table_cache_: TableCache*&lt;/p&gt;&lt;p style=&quot;margin:0px;margin-left:4px;&quot;&gt;- mutex_: port::Mutex&lt;/p&gt;&lt;p style=&quot;margin:0px;margin-left:4px;&quot;&gt;- mem_: MemTable*&lt;/p&gt;&lt;p style=&quot;margin:0px;margin-left:4px;&quot;&gt;- imm_: MemTable*&lt;/p&gt;&lt;p style=&quot;margin:0px;margin-left:4px;&quot;&gt;- log_: log::Writer*&lt;/p&gt;&lt;p style=&quot;margin:0px;margin-left:4px;&quot;&gt;...&lt;/p&gt;&lt;hr style=&quot;border-style:solid;&quot; size=&quot;1&quot;&gt;&lt;p style=&quot;margin:0px;margin-left:4px;&quot;&gt;+ 实现上述所有纯虚函数&lt;/p&gt;&lt;p style=&quot;margin:0px;margin-left:4px;&quot;&gt;+ NewDB(): Status&lt;/p&gt;&lt;p style=&quot;margin:0px;margin-left:4px;&quot;&gt;+ Recover(VersionEdit*, bool*): Status&lt;/p&gt;&lt;p style=&quot;margin:0px;margin-left:4px;&quot;&gt;+ RemoveObsoleteFiles(): void&lt;/p&gt;&lt;p style=&quot;margin:0px;margin-left:4px;&quot;&gt;+ CompactMemtable(): void&lt;/p&gt;&lt;p style=&quot;margin:0px;margin-left:4px;&quot;&gt;+ RecoverLogFile(uint64_t, ...): Status&lt;/p&gt;&lt;p style=&quot;margin:0px;margin-left:4px;&quot;&gt;...&lt;/p&gt;" style="verticalAlign=top;align=left;overflow=fill;html=1;whiteSpace=wrap;fontFamily=Comic Sans MS;fillColor=#fff2cc;strokeColor=#d6b656;shadow=1;gradientColor=none;" parent="1" vertex="1">
          <mxGeometry x="490" y="90" width="250" height="290" as="geometry" />
        </mxCell>
        <mxCell id="ZAFrgoKh-T77m-U7ydel-25" value="db/db_impl.h" style="text;strokeColor=none;align=center;fillColor=none;html=1;verticalAlign=middle;whiteSpace=wrap;rounded=0;fontSize=16;fontFamily=Comic Sans MS;" parent="1" vertex="1">
          <mxGeometry x="550" y="50" width="100" height="30" as="geometry" />
        </mxCell>
        <mxCell id="ZAFrgoKh-T77m-U7ydel-26" value="说明下 db/db_impl.cc中的函数，其中包含：&lt;div style=&quot;font-size: 12px;&quot;&gt;1、实现基类纯虚函数&lt;/div&gt;&lt;div style=&quot;font-size: 12px;&quot;&gt;2、自身定义的函数&lt;/div&gt;&lt;div style=&quot;font-size: 12px;&quot;&gt;3、还包含如下几个基类接口的实现（虽为纯虚函数也定义了实现）&lt;br style=&quot;font-size: 12px;&quot;&gt;&lt;div style=&quot;font-size: 12px;&quot;&gt;&lt;div style=&quot;color: rgb(204, 204, 204); background-color: rgb(31, 31, 31); font-size: 12px; line-height: 17px; white-space: pre;&quot;&gt;&lt;span style=&quot;color: rgb(78, 201, 176); font-size: 12px;&quot;&gt;Status&lt;/span&gt; &lt;span style=&quot;color: rgb(78, 201, 176); font-size: 12px;&quot;&gt;DB&lt;/span&gt;::&lt;span style=&quot;color: rgb(220, 220, 170); font-size: 12px;&quot;&gt;Put&lt;/span&gt;(&lt;span style=&quot;color: rgb(86, 156, 214); font-size: 12px;&quot;&gt;const&lt;/span&gt; &lt;span style=&quot;color: rgb(78, 201, 176); font-size: 12px;&quot;&gt;WriteOptions&lt;/span&gt;&lt;span style=&quot;color: rgb(86, 156, 214); font-size: 12px;&quot;&gt;&amp;amp;&lt;/span&gt; &lt;span style=&quot;color: rgb(156, 220, 254); font-size: 12px;&quot;&gt;opt&lt;/span&gt;, &lt;span style=&quot;color: rgb(86, 156, 214); font-size: 12px;&quot;&gt;const&lt;/span&gt; &lt;span style=&quot;color: rgb(78, 201, 176); font-size: 12px;&quot;&gt;Slice&lt;/span&gt;&lt;span style=&quot;color: rgb(86, 156, 214); font-size: 12px;&quot;&gt;&amp;amp;&lt;/span&gt; &lt;span style=&quot;color: rgb(156, 220, 254); font-size: 12px;&quot;&gt;key&lt;/span&gt;, &lt;span style=&quot;color: rgb(86, 156, 214); font-size: 12px;&quot;&gt;const&lt;/span&gt; &lt;span style=&quot;color: rgb(78, 201, 176); font-size: 12px;&quot;&gt;Slice&lt;/span&gt;&lt;span style=&quot;color: rgb(86, 156, 214); font-size: 12px;&quot;&gt;&amp;amp;&lt;/span&gt; &lt;span style=&quot;color: rgb(156, 220, 254); font-size: 12px;&quot;&gt;value&lt;/span&gt;) {xxx}&lt;/div&gt;&lt;/div&gt;&lt;div style=&quot;color: rgb(204, 204, 204); background-color: rgb(31, 31, 31); font-size: 12px; line-height: 17px; white-space: pre;&quot;&gt;&lt;div style=&quot;line-height: 17px; font-size: 12px;&quot;&gt;&lt;span style=&quot;color: rgb(78, 201, 176); font-size: 12px;&quot;&gt;Status&lt;/span&gt; &lt;span style=&quot;color: rgb(78, 201, 176); font-size: 12px;&quot;&gt;DB&lt;/span&gt;::&lt;span style=&quot;color: rgb(220, 220, 170); font-size: 12px;&quot;&gt;Delete&lt;/span&gt;(&lt;span style=&quot;color: rgb(86, 156, 214); font-size: 12px;&quot;&gt;const&lt;/span&gt; &lt;span style=&quot;color: rgb(78, 201, 176); font-size: 12px;&quot;&gt;WriteOptions&lt;/span&gt;&lt;span style=&quot;color: rgb(86, 156, 214); font-size: 12px;&quot;&gt;&amp;amp;&lt;/span&gt; &lt;span style=&quot;color: rgb(156, 220, 254); font-size: 12px;&quot;&gt;opt&lt;/span&gt;, &lt;span style=&quot;color: rgb(86, 156, 214); font-size: 12px;&quot;&gt;const&lt;/span&gt; &lt;span style=&quot;color: rgb(78, 201, 176); font-size: 12px;&quot;&gt;Slice&lt;/span&gt;&lt;span style=&quot;color: rgb(86, 156, 214); font-size: 12px;&quot;&gt;&amp;amp;&lt;/span&gt; &lt;span style=&quot;color: rgb(156, 220, 254); font-size: 12px;&quot;&gt;key&lt;/span&gt;) {xxx}&lt;/div&gt;&lt;div style=&quot;line-height: 17px; font-size: 12px;&quot;&gt;&lt;div style=&quot;line-height: 17px; font-size: 12px;&quot;&gt;&lt;div style=&quot;line-height: 17px; font-size: 12px;&quot;&gt;&lt;span style=&quot;color: rgb(78, 201, 176); font-size: 12px;&quot;&gt;Status&lt;/span&gt; &lt;span style=&quot;color: rgb(78, 201, 176); font-size: 12px;&quot;&gt;DB&lt;/span&gt;::&lt;span style=&quot;color: rgb(220, 220, 170); font-size: 12px;&quot;&gt;Open&lt;/span&gt;(&lt;span style=&quot;color: rgb(86, 156, 214); font-size: 12px;&quot;&gt;const&lt;/span&gt; &lt;span style=&quot;color: rgb(78, 201, 176); font-size: 12px;&quot;&gt;Options&lt;/span&gt;&lt;span style=&quot;color: rgb(86, 156, 214); font-size: 12px;&quot;&gt;&amp;amp;&lt;/span&gt; &lt;span style=&quot;color: rgb(156, 220, 254); font-size: 12px;&quot;&gt;options&lt;/span&gt;, &lt;span style=&quot;color: rgb(86, 156, 214); font-size: 12px;&quot;&gt;const&lt;/span&gt; &lt;span style=&quot;color: rgb(78, 201, 176); font-size: 12px;&quot;&gt;std&lt;/span&gt;::&lt;span style=&quot;color: rgb(78, 201, 176); font-size: 12px;&quot;&gt;string&lt;/span&gt;&lt;span style=&quot;color: rgb(86, 156, 214); font-size: 12px;&quot;&gt;&amp;amp;&lt;/span&gt; &lt;span style=&quot;color: rgb(156, 220, 254); font-size: 12px;&quot;&gt;dbname&lt;/span&gt;, &lt;span style=&quot;color: rgb(78, 201, 176); font-size: 12px;&quot;&gt;DB&lt;/span&gt;&lt;span style=&quot;color: rgb(86, 156, 214); font-size: 12px;&quot;&gt;**&lt;/span&gt; &lt;span style=&quot;color: rgb(156, 220, 254); font-size: 12px;&quot;&gt;dbptr&lt;/span&gt;) {xxx}&lt;/div&gt;&lt;/div&gt;&lt;/div&gt;&lt;/div&gt;&lt;/div&gt;" style="text;strokeColor=none;align=left;fillColor=none;html=1;verticalAlign=middle;whiteSpace=wrap;rounded=0;fontSize=12;fontFamily=Comic Sans MS;" parent="1" vertex="1">
          <mxGeometry x="754" y="170" width="576" height="180" as="geometry" />
        </mxCell>
        <mxCell id="ZAFrgoKh-T77m-U7ydel-28" value="" style="endArrow=block;dashed=1;endFill=0;endSize=12;html=1;rounded=0;fontSize=12;curved=1;exitX=0.001;exitY=0.036;exitDx=0;exitDy=0;exitPerimeter=0;fontFamily=Comic Sans MS;" parent="1" source="ZAFrgoKh-T77m-U7ydel-22" edge="1">
          <mxGeometry width="160" relative="1" as="geometry">
            <mxPoint x="490" y="220" as="sourcePoint" />
            <mxPoint x="410" y="100" as="targetPoint" />
          </mxGeometry>
        </mxCell>
        <mxCell id="ZAFrgoKh-T77m-U7ydel-55" value="实现" style="edgeLabel;html=1;align=center;verticalAlign=middle;resizable=0;points=[];fontFamily=Comic Sans MS;" parent="ZAFrgoKh-T77m-U7ydel-28" vertex="1" connectable="0">
          <mxGeometry x="-0.0977" y="-2" relative="1" as="geometry">
            <mxPoint as="offset" />
          </mxGeometry>
        </mxCell>
        <mxCell id="ZAFrgoKh-T77m-U7ydel-30" value="提供访问操作系统的功能接口，如文件系统。&lt;div style=&quot;font-size: 12px;&quot;&gt;也可自定义Env对象实现进一步的控制&lt;/div&gt;" style="text;strokeColor=none;align=left;fillColor=none;html=1;verticalAlign=middle;whiteSpace=wrap;rounded=0;fontSize=12;fontFamily=Comic Sans MS;" parent="1" vertex="1">
          <mxGeometry x="105" y="405" width="330" height="40" as="geometry" />
        </mxCell>
        <mxCell id="ZAFrgoKh-T77m-U7ydel-31" value="&lt;p style=&quot;margin:0px;margin-top:4px;text-align:center;&quot;&gt;&lt;i&gt;&amp;lt;&amp;lt;Interface&amp;gt;&amp;gt;&lt;/i&gt;&lt;br&gt;&lt;b&gt;Env&lt;/b&gt;&lt;/p&gt;&lt;hr style=&quot;border-style:solid;&quot; size=&quot;1&quot;&gt;&lt;p style=&quot;margin:0px;margin-left:4px;&quot;&gt;&lt;span style=&quot;background-color: initial;&quot;&gt;+&amp;nbsp;&lt;/span&gt;&lt;span style=&quot;background-color: initial;&quot;&gt;NewSequentialFile&lt;/span&gt;&lt;span style=&quot;background-color: initial;&quot;&gt;(string, SequentialFile**): Status&lt;/span&gt;&lt;/p&gt;&lt;p style=&quot;margin:0px;margin-left:4px;&quot;&gt;+ NewRandomAccessFile(string, RandomAccessFile**): Status&lt;/p&gt;&lt;p style=&quot;margin:0px;margin-left:4px;&quot;&gt;+ NewWritableFile(string, WritableFile**): Status&lt;/p&gt;&lt;p style=&quot;margin:0px;margin-left:4px;&quot;&gt;+ NewAppendableFile&lt;span style=&quot;background-color: initial;&quot;&gt;(string, WritableFile**): Status&lt;/span&gt;&lt;/p&gt;&lt;p style=&quot;margin:0px;margin-left:4px;&quot;&gt;+ FileExists(string): bool&lt;/p&gt;&lt;p style=&quot;margin:0px;margin-left:4px;&quot;&gt;+ RemoveFile(string): Status&lt;/p&gt;&lt;p style=&quot;margin:0px;margin-left:4px;&quot;&gt;+ GetFileSize(string, uint64_t*): Status&lt;/p&gt;&lt;p style=&quot;margin:0px;margin-left:4px;&quot;&gt;...&lt;/p&gt;&lt;p style=&quot;margin:0px;margin-left:4px;&quot;&gt;&lt;br&gt;&lt;/p&gt;" style="verticalAlign=top;align=left;overflow=fill;html=1;whiteSpace=wrap;fillColor=#f8cecc;strokeColor=#b85450;fontFamily=Comic Sans MS;" parent="1" vertex="1">
          <mxGeometry x="80" y="445" width="350" height="175" as="geometry" />
        </mxCell>
        <mxCell id="ZAFrgoKh-T77m-U7ydel-43" value="&lt;p style=&quot;margin:0px;margin-top:4px;text-align:center;&quot;&gt;&lt;b&gt;PosixEnv&lt;/b&gt;&lt;/p&gt;&lt;hr size=&quot;1&quot; style=&quot;border-style:solid;&quot;&gt;&lt;div style=&quot;height:2px;&quot;&gt;&lt;/div&gt;" style="verticalAlign=top;align=left;overflow=fill;html=1;whiteSpace=wrap;fontFamily=Comic Sans MS;" parent="1" vertex="1">
          <mxGeometry x="80" y="690" width="140" height="60" as="geometry" />
        </mxCell>
        <mxCell id="ZAFrgoKh-T77m-U7ydel-44" value="&lt;p style=&quot;margin:0px;margin-top:4px;text-align:center;&quot;&gt;&lt;b&gt;WindowsEnv&lt;/b&gt;&lt;br&gt;&lt;/p&gt;&lt;hr size=&quot;1&quot; style=&quot;border-style:solid;&quot;&gt;&lt;div style=&quot;height:2px;&quot;&gt;&lt;/div&gt;" style="verticalAlign=top;align=left;overflow=fill;html=1;whiteSpace=wrap;fontFamily=Comic Sans MS;" parent="1" vertex="1">
          <mxGeometry x="260" y="690" width="140" height="60" as="geometry" />
        </mxCell>
        <mxCell id="ZAFrgoKh-T77m-U7ydel-45" value="Extends" style="endArrow=block;endSize=16;endFill=0;html=1;rounded=0;exitX=0.5;exitY=0;exitDx=0;exitDy=0;entryX=0.2;entryY=1.009;entryDx=0;entryDy=0;entryPerimeter=0;fontFamily=Comic Sans MS;" parent="1" source="ZAFrgoKh-T77m-U7ydel-43" target="ZAFrgoKh-T77m-U7ydel-31" edge="1">
          <mxGeometry width="160" relative="1" as="geometry">
            <mxPoint x="340" y="670" as="sourcePoint" />
            <mxPoint x="500" y="670" as="targetPoint" />
          </mxGeometry>
        </mxCell>
        <mxCell id="ZAFrgoKh-T77m-U7ydel-47" value="Extends" style="endArrow=block;endSize=16;endFill=0;html=1;rounded=0;exitX=0.5;exitY=0;exitDx=0;exitDy=0;entryX=0.2;entryY=1.009;entryDx=0;entryDy=0;entryPerimeter=0;fontFamily=Comic Sans MS;" parent="1" edge="1">
          <mxGeometry width="160" relative="1" as="geometry">
            <mxPoint x="329.40999999999997" y="688" as="sourcePoint" />
            <mxPoint x="329.40999999999997" y="620" as="targetPoint" />
          </mxGeometry>
        </mxCell>
        <mxCell id="ZAFrgoKh-T77m-U7ydel-53" value="" style="endArrow=diamondThin;endFill=0;endSize=24;html=1;rounded=0;exitX=1;exitY=0.5;exitDx=0;exitDy=0;entryX=0.002;entryY=0.15;entryDx=0;entryDy=0;entryPerimeter=0;fontFamily=Comic Sans MS;" parent="1" source="ZAFrgoKh-T77m-U7ydel-31" target="ZAFrgoKh-T77m-U7ydel-22" edge="1">
          <mxGeometry width="160" relative="1" as="geometry">
            <mxPoint x="350" y="360" as="sourcePoint" />
            <mxPoint x="480" y="170" as="targetPoint" />
            <Array as="points">
              <mxPoint x="450" y="533" />
              <mxPoint x="450" y="134" />
            </Array>
          </mxGeometry>
        </mxCell>
        <mxCell id="ZAFrgoKh-T77m-U7ydel-54" value="聚合" style="edgeLabel;html=1;align=center;verticalAlign=middle;resizable=0;points=[];fontFamily=Comic Sans MS;" parent="ZAFrgoKh-T77m-U7ydel-53" vertex="1" connectable="0">
          <mxGeometry x="0.1952" y="-1" relative="1" as="geometry">
            <mxPoint as="offset" />
          </mxGeometry>
        </mxCell>
        <mxCell id="ZAFrgoKh-T77m-U7ydel-57" value="include/leveldb/env.h" style="text;strokeColor=none;align=center;fillColor=none;html=1;verticalAlign=middle;whiteSpace=wrap;rounded=0;fontSize=16;fontFamily=Comic Sans MS;" parent="1" vertex="1">
          <mxGeometry x="100" y="375" width="180" height="30" as="geometry" />
        </mxCell>
        <mxCell id="ZAFrgoKh-T77m-U7ydel-58" value="&lt;p style=&quot;margin:0px;margin-top:4px;text-align:center;&quot;&gt;&lt;span style=&quot;text-align: left;&quot;&gt;&lt;b&gt;TableCache&lt;/b&gt;&lt;/span&gt;&lt;br&gt;&lt;/p&gt;&lt;hr style=&quot;border-style:solid;&quot; size=&quot;1&quot;&gt;&lt;div style=&quot;height:2px;&quot;&gt;&lt;/div&gt;" style="verticalAlign=top;align=left;overflow=fill;html=1;whiteSpace=wrap;fillColor=#e1d5e7;strokeColor=#9673a6;fontFamily=Comic Sans MS;" parent="1" vertex="1">
          <mxGeometry x="480" y="460" width="90" height="60" as="geometry" />
        </mxCell>
        <mxCell id="ZAFrgoKh-T77m-U7ydel-60" value="&lt;p style=&quot;margin: 4px 0px 0px; text-align: center;&quot;&gt;&lt;span style=&quot;text-align: left;&quot;&gt;&lt;b&gt;Memtable&lt;/b&gt;&lt;/span&gt;&lt;/p&gt;&lt;hr style=&quot;border-style:solid;&quot; size=&quot;1&quot;&gt;&lt;p style=&quot;margin:0px;margin-left:4px;&quot;&gt;- refs_: int&lt;/p&gt;&lt;p style=&quot;margin:0px;margin-left:4px;&quot;&gt;- comparator_: KeyComparator&lt;/p&gt;&lt;p style=&quot;margin:0px;margin-left:4px;&quot;&gt;- arena_: Arena&lt;/p&gt;&lt;p style=&quot;margin:0px;margin-left:4px;&quot;&gt;- table_: Talbe&lt;/p&gt;&lt;hr style=&quot;border-style:solid;&quot; size=&quot;1&quot;&gt;&lt;p style=&quot;margin:0px;margin-left:4px;&quot;&gt;+ Ref(): void&lt;/p&gt;&lt;p style=&quot;margin:0px;margin-left:4px;&quot;&gt;+ UnRef(): void&lt;/p&gt;&lt;p style=&quot;margin:0px;margin-left:4px;&quot;&gt;+ Add(SequenceNumber, ValueType, Slice, Slice): void&lt;/p&gt;&lt;p style=&quot;margin:0px;margin-left:4px;&quot;&gt;+ Get(LookupKey, string, Status*): bool&lt;/p&gt;&lt;p style=&quot;margin:0px;margin-left:4px;&quot;&gt;...&lt;/p&gt;" style="verticalAlign=top;align=left;overflow=fill;html=1;whiteSpace=wrap;fillColor=#ffe6cc;strokeColor=#d79b00;fontFamily=Comic Sans MS;" parent="1" vertex="1">
          <mxGeometry x="720" y="460" width="300" height="190" as="geometry" />
        </mxCell>
        <mxCell id="ZAFrgoKh-T77m-U7ydel-61" value="" style="endArrow=diamondThin;endFill=0;endSize=24;html=1;rounded=0;fontFamily=Comic Sans MS;" parent="1" edge="1">
          <mxGeometry width="160" relative="1" as="geometry">
            <mxPoint x="584.5" y="440" as="sourcePoint" />
            <mxPoint x="584.5" y="380" as="targetPoint" />
          </mxGeometry>
        </mxCell>
        <mxCell id="ZAFrgoKh-T77m-U7ydel-64" value="聚合" style="edgeLabel;html=1;align=center;verticalAlign=middle;resizable=0;points=[];fontFamily=Comic Sans MS;" parent="ZAFrgoKh-T77m-U7ydel-61" vertex="1" connectable="0">
          <mxGeometry x="-0.1856" y="-1" relative="1" as="geometry">
            <mxPoint y="-1" as="offset" />
          </mxGeometry>
        </mxCell>
        <mxCell id="ZAFrgoKh-T77m-U7ydel-62" value="" style="endArrow=diamondThin;endFill=0;endSize=24;html=1;rounded=0;entryX=0.995;entryY=0.938;entryDx=0;entryDy=0;entryPerimeter=0;exitX=0.5;exitY=0;exitDx=0;exitDy=0;fontFamily=Comic Sans MS;" parent="1" source="ZAFrgoKh-T77m-U7ydel-60" target="ZAFrgoKh-T77m-U7ydel-22" edge="1">
          <mxGeometry width="160" relative="1" as="geometry">
            <mxPoint x="710" y="460" as="sourcePoint" />
            <mxPoint x="710" y="380" as="targetPoint" />
            <Array as="points">
              <mxPoint x="870" y="362" />
            </Array>
          </mxGeometry>
        </mxCell>
        <mxCell id="ZAFrgoKh-T77m-U7ydel-63" value="聚合" style="edgeLabel;html=1;align=center;verticalAlign=middle;resizable=0;points=[];fontFamily=Comic Sans MS;" parent="ZAFrgoKh-T77m-U7ydel-62" vertex="1" connectable="0">
          <mxGeometry x="-0.1719" y="1" relative="1" as="geometry">
            <mxPoint y="-1" as="offset" />
          </mxGeometry>
        </mxCell>
        <mxCell id="ZAFrgoKh-T77m-U7ydel-65" value="&lt;p style=&quot;margin:0px;margin-top:4px;text-align:center;&quot;&gt;&lt;b&gt;FileLock&lt;/b&gt;&lt;/p&gt;&lt;hr style=&quot;border-style:solid;&quot; size=&quot;1&quot;&gt;&lt;div style=&quot;height:2px;&quot;&gt;&lt;/div&gt;" style="verticalAlign=top;align=left;overflow=fill;html=1;whiteSpace=wrap;fillColor=#e1d5e7;strokeColor=#9673a6;fontFamily=Comic Sans MS;" parent="1" vertex="1">
          <mxGeometry x="600" y="460" width="80" height="60" as="geometry" />
        </mxCell>
        <mxCell id="ZAFrgoKh-T77m-U7ydel-66" value="&lt;p style=&quot;margin:0px;margin-top:4px;text-align:center;&quot;&gt;&lt;b&gt;WritableFile&lt;/b&gt;&lt;br&gt;&lt;/p&gt;&lt;hr style=&quot;border-style:solid;&quot; size=&quot;1&quot;&gt;&lt;div style=&quot;height:2px;&quot;&gt;&lt;/div&gt;" style="verticalAlign=top;align=left;overflow=fill;html=1;whiteSpace=wrap;fillColor=#e1d5e7;strokeColor=#9673a6;fontFamily=Comic Sans MS;" parent="1" vertex="1">
          <mxGeometry x="460" y="540" width="80" height="60" as="geometry" />
        </mxCell>
        <mxCell id="ZAFrgoKh-T77m-U7ydel-67" value="&lt;p style=&quot;margin:0px;margin-top:4px;text-align:center;&quot;&gt;&lt;b&gt;SnapshotList&lt;/b&gt;&lt;/p&gt;&lt;hr style=&quot;border-style:solid;&quot; size=&quot;1&quot;&gt;&lt;div style=&quot;height:2px;&quot;&gt;&lt;/div&gt;" style="verticalAlign=top;align=left;overflow=fill;html=1;whiteSpace=wrap;fillColor=#e1d5e7;strokeColor=#9673a6;fontFamily=Comic Sans MS;" parent="1" vertex="1">
          <mxGeometry x="490" y="680" width="80" height="60" as="geometry" />
        </mxCell>
        <mxCell id="ZAFrgoKh-T77m-U7ydel-68" value="&lt;p style=&quot;margin:0px;margin-top:4px;text-align:center;&quot;&gt;&lt;b&gt;log::Writer&lt;/b&gt;&lt;br&gt;&lt;/p&gt;&lt;hr style=&quot;border-style:solid;&quot; size=&quot;1&quot;&gt;&lt;div style=&quot;height:2px;&quot;&gt;&lt;/div&gt;" style="verticalAlign=top;align=left;overflow=fill;html=1;whiteSpace=wrap;fillColor=#e1d5e7;strokeColor=#9673a6;fontFamily=Comic Sans MS;" parent="1" vertex="1">
          <mxGeometry x="550" y="540" width="70" height="60" as="geometry" />
        </mxCell>
        <mxCell id="ZAFrgoKh-T77m-U7ydel-69" value="&lt;p style=&quot;margin:0px;margin-top:4px;text-align:center;&quot;&gt;&lt;b&gt;WriterBatch&lt;/b&gt;&lt;br&gt;&lt;/p&gt;&lt;hr style=&quot;border-style:solid;&quot; size=&quot;1&quot;&gt;&lt;div style=&quot;height:2px;&quot;&gt;&lt;/div&gt;" style="verticalAlign=top;align=left;overflow=fill;html=1;whiteSpace=wrap;fillColor=#e1d5e7;strokeColor=#9673a6;fontFamily=Comic Sans MS;" parent="1" vertex="1">
          <mxGeometry x="460" y="610" width="80" height="60" as="geometry" />
        </mxCell>
        <mxCell id="ZAFrgoKh-T77m-U7ydel-70" value="&lt;p style=&quot;margin:0px;margin-top:4px;text-align:center;&quot;&gt;&lt;b&gt;ManualCompaction&lt;/b&gt;&lt;br&gt;&lt;/p&gt;&lt;hr style=&quot;border-style:solid;&quot; size=&quot;1&quot;&gt;&lt;div style=&quot;height:2px;&quot;&gt;&lt;/div&gt;" style="verticalAlign=top;align=left;overflow=fill;html=1;whiteSpace=wrap;fillColor=#e1d5e7;strokeColor=#9673a6;fontFamily=Comic Sans MS;" parent="1" vertex="1">
          <mxGeometry x="560" y="610" width="120" height="60" as="geometry" />
        </mxCell>
        <mxCell id="ZAFrgoKh-T77m-U7ydel-71" value="&lt;p style=&quot;margin:0px;margin-top:4px;text-align:center;&quot;&gt;&lt;b&gt;VersionSet&lt;/b&gt;&lt;/p&gt;&lt;hr style=&quot;border-style:solid;&quot; size=&quot;1&quot;&gt;&lt;div style=&quot;height:2px;&quot;&gt;&lt;/div&gt;" style="verticalAlign=top;align=left;overflow=fill;html=1;whiteSpace=wrap;fillColor=#1ba1e2;strokeColor=#006EAF;fontFamily=Comic Sans MS;fontColor=#ffffff;" parent="1" vertex="1">
          <mxGeometry x="630" y="540" width="70" height="60" as="geometry" />
        </mxCell>
        <mxCell id="gkVjsFYCQqzJ9_Tw2jVr-1" value="&lt;p style=&quot;margin:0px;margin-top:4px;text-align:center;&quot;&gt;&lt;b&gt;VersionSet&lt;/b&gt;&lt;/p&gt;&lt;hr style=&quot;border-style:solid;&quot; size=&quot;1&quot;&gt;&lt;p style=&quot;margin:0px;margin-left:4px;&quot;&gt;- env_: Env*&lt;/p&gt;&lt;p style=&quot;margin:0px;margin-left:4px;&quot;&gt;- options_: Options*&lt;/p&gt;&lt;p style=&quot;margin:0px;margin-left:4px;&quot;&gt;- table_cache_: TableCache*&lt;/p&gt;&lt;p style=&quot;margin:0px;margin-left:4px;&quot;&gt;- icmp_: InternalKeyComparator&lt;/p&gt;&lt;p style=&quot;margin:0px;margin-left:4px;&quot;&gt;- next_file_number_: uint64&lt;br&gt;&lt;/p&gt;&lt;p style=&quot;margin:0px;margin-left:4px;&quot;&gt;- &lt;font color=&quot;#2e1fff&quot;&gt;manifest_file_number_: uint64&lt;/font&gt;&lt;/p&gt;&lt;p style=&quot;margin:0px;margin-left:4px;&quot;&gt;- last_sequence_: uint64&lt;/p&gt;&lt;p style=&quot;margin:0px;margin-left:4px;&quot;&gt;- log_number: uint64&lt;/p&gt;&lt;p style=&quot;margin:0px;margin-left:4px;&quot;&gt;...&lt;/p&gt;&lt;p style=&quot;margin:0px;margin-left:4px;&quot;&gt;- dummy_versions_: Version&lt;/p&gt;&lt;p style=&quot;margin:0px;margin-left:4px;&quot;&gt;- &lt;font color=&quot;#262dff&quot;&gt;current_: Version*&lt;/font&gt;&lt;/p&gt;&lt;p style=&quot;margin:0px;margin-left:4px;&quot;&gt;- compact_pointer_: string[config::kNumLevels]&lt;/p&gt;&lt;hr style=&quot;border-style:solid;&quot; size=&quot;1&quot;&gt;&lt;p style=&quot;margin:0px;margin-left:4px;&quot;&gt;+ LogAndApply(VersionEdit*, port::Mutex*): Status&lt;/p&gt;&lt;p style=&quot;margin:0px;margin-left:4px;&quot;&gt;+ Recover(bool*): Status&lt;/p&gt;&lt;p style=&quot;margin:0px;margin-left:4px;&quot;&gt;+ current(): Version*&lt;/p&gt;&lt;p style=&quot;margin:0px;margin-left:4px;&quot;&gt;+ ManifestFileNumber(): uint64&lt;/p&gt;&lt;p style=&quot;margin:0px;margin-left:4px;&quot;&gt;+ NewFileNumber(): uint64&lt;/p&gt;&lt;p style=&quot;margin:0px;margin-left:4px;&quot;&gt;+ NumLevelFiles(int): int&lt;/p&gt;&lt;p style=&quot;margin:0px;margin-left:4px;&quot;&gt;+ ...&lt;/p&gt;&lt;p style=&quot;margin:0px;margin-left:4px;&quot;&gt;+ PickCompaction(): Compaction*&lt;/p&gt;&lt;p style=&quot;margin:0px;margin-left:4px;&quot;&gt;+ CompactRange(int, InternalKey*, InternalKey*): Compaction*&lt;/p&gt;&lt;p style=&quot;margin:0px;margin-left:4px;&quot;&gt;+ AddLiveFiles(std::set&amp;lt;uint64&amp;gt;*): void&lt;/p&gt;&lt;p style=&quot;margin:0px;margin-left:4px;&quot;&gt;+ LevelSummary(LevelSummaryStorage*): char*&lt;/p&gt;&lt;p style=&quot;margin:0px;margin-left:4px;&quot;&gt;...&lt;/p&gt;" style="verticalAlign=top;align=left;overflow=fill;html=1;whiteSpace=wrap;fontFamily=Comic Sans MS;fillColor=#f9f7ed;strokeColor=#36393d;" parent="1" vertex="1">
          <mxGeometry x="100" y="830" width="350" height="420" as="geometry" />
        </mxCell>
        <mxCell id="gkVjsFYCQqzJ9_Tw2jVr-3" value="db/version_set.h" style="text;whiteSpace=wrap;fontFamily=Comic Sans MS;fontSize=16;" parent="1" vertex="1">
          <mxGeometry x="160" y="800" width="120" height="40" as="geometry" />
        </mxCell>
        <mxCell id="gkVjsFYCQqzJ9_Tw2jVr-8" value="db/version_set.h" style="text;whiteSpace=wrap;fontFamily=Comic Sans MS;fontSize=16;" parent="1" vertex="1">
          <mxGeometry x="550" y="800" width="120" height="40" as="geometry" />
        </mxCell>
        <mxCell id="gkVjsFYCQqzJ9_Tw2jVr-10" value="&lt;p style=&quot;margin:0px;margin-top:4px;text-align:center;&quot;&gt;&lt;b&gt;Version&lt;/b&gt;&lt;/p&gt;&lt;hr style=&quot;border-style:solid;&quot; size=&quot;1&quot;&gt;&lt;p style=&quot;margin:0px;margin-left:4px;&quot;&gt;- vset_: VersionSet*&lt;/p&gt;&lt;p style=&quot;margin:0px;margin-left:4px;&quot;&gt;- next_: Version*&lt;/p&gt;&lt;p style=&quot;margin:0px;margin-left:4px;&quot;&gt;- prev_: Version*&lt;/p&gt;&lt;p style=&quot;margin:0px;margin-left:4px;&quot;&gt;- refs: int&lt;/p&gt;&lt;p style=&quot;margin:0px;margin-left:4px;&quot;&gt;- &lt;font color=&quot;#ff5517&quot;&gt;files_[config::kNumLevels]: vector&amp;lt;FileMetaData*&amp;gt;&lt;/font&gt;&lt;/p&gt;&lt;p style=&quot;margin:0px;margin-left:4px;&quot;&gt;- file_to_compact_: FileMetaData*&lt;/p&gt;&lt;p style=&quot;margin:0px;margin-left:4px;&quot;&gt;- file_to_compact_level_: int&lt;/p&gt;&lt;p style=&quot;margin:0px;margin-left:4px;&quot;&gt;- compaction_score_: double&lt;/p&gt;&lt;p style=&quot;margin:0px;margin-left:4px;&quot;&gt;- compaction_level_: int&lt;/p&gt;&lt;hr style=&quot;border-style:solid;&quot; size=&quot;1&quot;&gt;&lt;p style=&quot;margin:0px;margin-left:4px;&quot;&gt;+ AddIterators(ReadOptions, vector&amp;lt;Iterator*&amp;gt;*): void&lt;/p&gt;&lt;p style=&quot;margin:0px;margin-left:4px;&quot;&gt;+ Get(ReadOptions, LookupKey, string*, GetStats*): Status&lt;/p&gt;&lt;p style=&quot;margin:0px;margin-left:4px;&quot;&gt;+ UpdateStats(GetStats): bool&lt;/p&gt;&lt;p style=&quot;margin:0px;margin-left:4px;&quot;&gt;+ RecordReadSample(Slice key): bool&lt;/p&gt;&lt;p style=&quot;margin:0px;margin-left:4px;&quot;&gt;+ Ref(): void&lt;/p&gt;&lt;p style=&quot;margin:0px;margin-left:4px;&quot;&gt;+ Unref(): void&lt;/p&gt;&lt;p style=&quot;margin:0px;margin-left:4px;&quot;&gt;+ GetOverlappingInputs(int, InternalKey*, InternalKey*, vector&amp;lt;FileMetaData*&amp;gt;*): void&lt;/p&gt;&lt;p style=&quot;margin:0px;margin-left:4px;&quot;&gt;+ OverlapInLevel(int, Slice*, Slice*): bool&lt;/p&gt;&lt;p style=&quot;margin:0px;margin-left:4px;&quot;&gt;+ PickLevelForMemTableOutput(Slice, Slice): int&lt;/p&gt;&lt;p style=&quot;margin:0px;margin-left:4px;&quot;&gt;+ Numfiles(int): int&lt;/p&gt;&lt;p style=&quot;margin:0px;margin-left:4px;&quot;&gt;...&lt;/p&gt;&lt;p style=&quot;margin:0px;margin-left:4px;&quot;&gt;&lt;br&gt;&lt;/p&gt;" style="verticalAlign=top;align=left;overflow=fill;html=1;whiteSpace=wrap;fontFamily=Comic Sans MS;fillColor=#b1ddf0;strokeColor=#10739e;" parent="1" vertex="1">
          <mxGeometry x="505" y="830" width="505" height="360" as="geometry" />
        </mxCell>
        <mxCell id="gkVjsFYCQqzJ9_Tw2jVr-11" value="" style="endArrow=block;startArrow=block;endFill=1;startFill=1;html=1;rounded=0;" parent="1" edge="1">
          <mxGeometry width="160" relative="1" as="geometry">
            <mxPoint x="450" y="940" as="sourcePoint" />
            <mxPoint x="505" y="940" as="targetPoint" />
          </mxGeometry>
        </mxCell>
        <mxCell id="gkVjsFYCQqzJ9_Tw2jVr-13" value="" style="curved=1;endArrow=classic;html=1;rounded=0;exitX=0.884;exitY=1.07;exitDx=0;exitDy=0;exitPerimeter=0;" parent="1" source="ZAFrgoKh-T77m-U7ydel-71" edge="1">
          <mxGeometry width="50" height="50" relative="1" as="geometry">
            <mxPoint x="440" y="770" as="sourcePoint" />
            <mxPoint x="360" y="820" as="targetPoint" />
            <Array as="points">
              <mxPoint x="690" y="750" />
              <mxPoint x="570" y="750" />
              <mxPoint x="450" y="760" />
            </Array>
          </mxGeometry>
        </mxCell>
      </root>
    </mxGraphModel>
  </diagram>
  <diagram id="bOViIQgHDir_F1Wbkapo" name="读流程">
    <mxGraphModel dx="794" dy="501" grid="1" gridSize="10" guides="1" tooltips="1" connect="1" arrows="1" fold="1" page="1" pageScale="1" pageWidth="827" pageHeight="1169" math="0" shadow="0">
      <root>
        <mxCell id="0" />
        <mxCell id="1" parent="0" />
        <mxCell id="rq3kuAwTwIvn0HxcFi1E-7" value="" style="edgeStyle=orthogonalEdgeStyle;rounded=0;orthogonalLoop=1;jettySize=auto;html=1;entryX=0.5;entryY=0;entryDx=0;entryDy=0;fontSize=12;fillColor=#dae8fc;strokeColor=#6c8ebf;shadow=0;" parent="1" source="rq3kuAwTwIvn0HxcFi1E-3" edge="1" target="LnYUmdWSm1-Cqhz2FIFq-7">
          <mxGeometry relative="1" as="geometry">
            <mxPoint x="350" y="140" as="targetPoint" />
          </mxGeometry>
        </mxCell>
        <mxCell id="rq3kuAwTwIvn0HxcFi1E-3" value="全局加锁&lt;br&gt;&lt;div style=&quot;color: rgb(204, 204, 204); background-color: rgb(31, 31, 31); font-family: Menlo, Monaco, &amp;quot;Courier New&amp;quot;, monospace; font-size: 11px; line-height: 17px;&quot;&gt;MutexLock l(&lt;span style=&quot;color: #d4d4d4;&quot;&gt;&amp;amp;&lt;/span&gt;mutex_);&lt;/div&gt;" style="whiteSpace=wrap;html=1;shadow=0;fillColor=#dae8fc;strokeColor=#6c8ebf;" parent="1" vertex="1">
          <mxGeometry x="270" y="50" width="160" height="60" as="geometry" />
        </mxCell>
        <mxCell id="JWHBPVoRQYxldGWFaLxb-2" value="Y" style="edgeStyle=orthogonalEdgeStyle;rounded=0;orthogonalLoop=1;jettySize=auto;html=1;fontSize=12;fillColor=#dae8fc;strokeColor=#6c8ebf;shadow=0;" edge="1" parent="1" source="LnYUmdWSm1-Cqhz2FIFq-7" target="JWHBPVoRQYxldGWFaLxb-1">
          <mxGeometry relative="1" as="geometry" />
        </mxCell>
        <mxCell id="JWHBPVoRQYxldGWFaLxb-4" value="" style="edgeStyle=orthogonalEdgeStyle;rounded=0;orthogonalLoop=1;jettySize=auto;html=1;fontSize=12;fillColor=#dae8fc;strokeColor=#6c8ebf;shadow=0;" edge="1" parent="1" source="LnYUmdWSm1-Cqhz2FIFq-7" target="JWHBPVoRQYxldGWFaLxb-3">
          <mxGeometry relative="1" as="geometry" />
        </mxCell>
        <mxCell id="JWHBPVoRQYxldGWFaLxb-9" value="N" style="edgeLabel;html=1;align=center;verticalAlign=middle;resizable=0;points=[];fontSize=12;fillColor=#dae8fc;strokeColor=#6c8ebf;shadow=0;" vertex="1" connectable="0" parent="JWHBPVoRQYxldGWFaLxb-4">
          <mxGeometry x="-0.4667" y="-2" relative="1" as="geometry">
            <mxPoint as="offset" />
          </mxGeometry>
        </mxCell>
        <mxCell id="LnYUmdWSm1-Cqhz2FIFq-7" value="options中是否指定snapshot" style="rhombus;whiteSpace=wrap;html=1;fillColor=#dae8fc;strokeColor=#6c8ebf;shadow=0;" parent="1" vertex="1">
          <mxGeometry x="292.5" y="145" width="115" height="70" as="geometry" />
        </mxCell>
        <mxCell id="LnYUmdWSm1-Cqhz2FIFq-8" value="&lt;div style=&quot;color: rgb(204, 204, 204); background-color: rgb(31, 31, 31); font-family: Menlo, Monaco, &amp;quot;Courier New&amp;quot;, monospace; font-weight: normal; font-size: 11px; line-height: 17px;&quot;&gt;&lt;div&gt;&lt;span style=&quot;color: #4ec9b0;&quot;&gt;声明：&lt;/span&gt;&lt;/div&gt;&lt;div&gt;&lt;span style=&quot;color: #4ec9b0;&quot;&gt;Status&lt;/span&gt;&lt;span style=&quot;color: #cccccc;&quot;&gt; &lt;/span&gt;&lt;span style=&quot;color: #4ec9b0;&quot;&gt;DBImpl&lt;/span&gt;&lt;span style=&quot;color: #cccccc;&quot;&gt;::&lt;/span&gt;&lt;span style=&quot;color: #dcdcaa;&quot;&gt;Get&lt;/span&gt;&lt;span style=&quot;color: #cccccc;&quot;&gt;(&lt;/span&gt;&lt;span style=&quot;color: #569cd6;&quot;&gt;const&lt;/span&gt;&lt;span style=&quot;color: #cccccc;&quot;&gt; &lt;/span&gt;&lt;span style=&quot;color: #4ec9b0;&quot;&gt;ReadOptions&lt;/span&gt;&lt;span style=&quot;color: #569cd6;&quot;&gt;&amp;amp;&lt;/span&gt;&lt;span style=&quot;color: #cccccc;&quot;&gt; &lt;/span&gt;&lt;span style=&quot;color: #9cdcfe;&quot;&gt;options&lt;/span&gt;&lt;span style=&quot;color: #cccccc;&quot;&gt;, &lt;/span&gt;&lt;span style=&quot;color: #569cd6;&quot;&gt;const&lt;/span&gt;&lt;span style=&quot;color: #cccccc;&quot;&gt; &lt;/span&gt;&lt;span style=&quot;color: #4ec9b0;&quot;&gt;Slice&lt;/span&gt;&lt;span style=&quot;color: #569cd6;&quot;&gt;&amp;amp;&lt;/span&gt;&lt;span style=&quot;color: #cccccc;&quot;&gt; &lt;/span&gt;&lt;span style=&quot;color: #9cdcfe;&quot;&gt;key&lt;/span&gt;&lt;span style=&quot;color: #cccccc;&quot;&gt;,&amp;nbsp;&lt;/span&gt;&lt;span style=&quot;color: rgb(78, 201, 176);&quot;&gt;std&lt;/span&gt;::&lt;span style=&quot;color: rgb(78, 201, 176);&quot;&gt;string&lt;/span&gt;&lt;span style=&quot;color: rgb(86, 156, 214);&quot;&gt;*&lt;/span&gt; &lt;span style=&quot;color: rgb(156, 220, 254);&quot;&gt;value&lt;/span&gt;)&lt;/div&gt;&lt;/div&gt;" style="text;whiteSpace=wrap;html=1;" parent="1" vertex="1">
          <mxGeometry x="180" width="580" height="40" as="geometry" />
        </mxCell>
        <mxCell id="JWHBPVoRQYxldGWFaLxb-21" style="edgeStyle=orthogonalEdgeStyle;rounded=0;orthogonalLoop=1;jettySize=auto;html=1;entryX=1;entryY=0.5;entryDx=0;entryDy=0;fontSize=12;fillColor=#dae8fc;strokeColor=#6c8ebf;shadow=0;" edge="1" parent="1" source="JWHBPVoRQYxldGWFaLxb-1">
          <mxGeometry relative="1" as="geometry">
            <mxPoint x="417.5" y="375" as="targetPoint" />
            <Array as="points">
              <mxPoint x="510" y="375" />
            </Array>
          </mxGeometry>
        </mxCell>
        <mxCell id="JWHBPVoRQYxldGWFaLxb-1" value="获取快照对应的seqnumber" style="whiteSpace=wrap;html=1;fillColor=#dae8fc;strokeColor=#6c8ebf;shadow=0;" vertex="1" parent="1">
          <mxGeometry x="450" y="150" width="120" height="60" as="geometry" />
        </mxCell>
        <mxCell id="JWHBPVoRQYxldGWFaLxb-7" value="" style="edgeStyle=orthogonalEdgeStyle;rounded=0;orthogonalLoop=1;jettySize=auto;html=1;fontSize=12;fillColor=#dae8fc;strokeColor=#6c8ebf;shadow=0;" edge="1" parent="1" source="JWHBPVoRQYxldGWFaLxb-3">
          <mxGeometry relative="1" as="geometry">
            <mxPoint x="350" y="350" as="targetPoint" />
          </mxGeometry>
        </mxCell>
        <mxCell id="JWHBPVoRQYxldGWFaLxb-3" value="获取当前VersionSet的最新seqnumber" style="whiteSpace=wrap;html=1;fillColor=#dae8fc;strokeColor=#6c8ebf;shadow=0;" vertex="1" parent="1">
          <mxGeometry x="290" y="253" width="120" height="60" as="geometry" />
        </mxCell>
        <mxCell id="JWHBPVoRQYxldGWFaLxb-14" style="edgeStyle=orthogonalEdgeStyle;rounded=0;orthogonalLoop=1;jettySize=auto;html=1;entryX=0.5;entryY=0;entryDx=0;entryDy=0;fontSize=12;fillColor=#dae8fc;strokeColor=#6c8ebf;shadow=0;" edge="1" parent="1" target="JWHBPVoRQYxldGWFaLxb-10">
          <mxGeometry relative="1" as="geometry">
            <mxPoint x="350" y="400" as="sourcePoint" />
          </mxGeometry>
        </mxCell>
        <mxCell id="JWHBPVoRQYxldGWFaLxb-16" value="" style="edgeStyle=orthogonalEdgeStyle;rounded=0;orthogonalLoop=1;jettySize=auto;html=1;fontSize=12;fillColor=#dae8fc;strokeColor=#6c8ebf;shadow=0;" edge="1" parent="1" source="JWHBPVoRQYxldGWFaLxb-10" target="JWHBPVoRQYxldGWFaLxb-12">
          <mxGeometry relative="1" as="geometry" />
        </mxCell>
        <mxCell id="JWHBPVoRQYxldGWFaLxb-10" value="根据key查找&lt;br&gt;&lt;font color=&quot;#2e1fff&quot;&gt;memtable&lt;/font&gt;" style="whiteSpace=wrap;html=1;fillColor=#dae8fc;strokeColor=#6c8ebf;shadow=0;" vertex="1" parent="1">
          <mxGeometry x="290" y="440" width="120" height="60" as="geometry" />
        </mxCell>
        <mxCell id="JWHBPVoRQYxldGWFaLxb-11" value="根据传入的key进行编码，&lt;br&gt;并组合上述seqnumber，&lt;br&gt;得到LookupKey用于查找" style="text;strokeColor=none;align=center;fillColor=none;html=1;verticalAlign=middle;whiteSpace=wrap;rounded=0;" vertex="1" parent="1">
          <mxGeometry x="132.5" y="460" width="160" height="30" as="geometry" />
        </mxCell>
        <mxCell id="JWHBPVoRQYxldGWFaLxb-19" style="edgeStyle=orthogonalEdgeStyle;rounded=0;orthogonalLoop=1;jettySize=auto;html=1;entryX=0.5;entryY=0;entryDx=0;entryDy=0;fontSize=12;fillColor=#dae8fc;strokeColor=#6c8ebf;shadow=0;" edge="1" parent="1" source="JWHBPVoRQYxldGWFaLxb-12" target="JWHBPVoRQYxldGWFaLxb-15">
          <mxGeometry relative="1" as="geometry">
            <Array as="points">
              <mxPoint x="503" y="530" />
              <mxPoint x="350" y="530" />
            </Array>
          </mxGeometry>
        </mxCell>
        <mxCell id="JWHBPVoRQYxldGWFaLxb-20" value="N" style="edgeLabel;html=1;align=center;verticalAlign=middle;resizable=0;points=[];fontSize=12;fillColor=#dae8fc;strokeColor=#6c8ebf;shadow=0;" vertex="1" connectable="0" parent="JWHBPVoRQYxldGWFaLxb-19">
          <mxGeometry x="-0.478" y="-1" relative="1" as="geometry">
            <mxPoint y="1" as="offset" />
          </mxGeometry>
        </mxCell>
        <mxCell id="JWHBPVoRQYxldGWFaLxb-37" style="edgeStyle=orthogonalEdgeStyle;rounded=0;orthogonalLoop=1;jettySize=auto;html=1;entryX=1;entryY=0.5;entryDx=0;entryDy=0;fontSize=12;fillColor=#dae8fc;strokeColor=#6c8ebf;shadow=0;" edge="1" parent="1" source="JWHBPVoRQYxldGWFaLxb-12" target="JWHBPVoRQYxldGWFaLxb-31">
          <mxGeometry relative="1" as="geometry">
            <mxPoint x="570" y="710" as="targetPoint" />
            <Array as="points">
              <mxPoint x="600" y="470" />
              <mxPoint x="600" y="780" />
            </Array>
          </mxGeometry>
        </mxCell>
        <mxCell id="JWHBPVoRQYxldGWFaLxb-39" value="Y" style="edgeLabel;html=1;align=center;verticalAlign=middle;resizable=0;points=[];fontSize=12;fillColor=#dae8fc;strokeColor=#6c8ebf;shadow=0;" vertex="1" connectable="0" parent="JWHBPVoRQYxldGWFaLxb-37">
          <mxGeometry x="-0.9544" y="1" relative="1" as="geometry">
            <mxPoint x="1" as="offset" />
          </mxGeometry>
        </mxCell>
        <mxCell id="JWHBPVoRQYxldGWFaLxb-12" value="是否找到" style="rhombus;whiteSpace=wrap;html=1;fillColor=#dae8fc;strokeColor=#6c8ebf;shadow=0;" vertex="1" parent="1">
          <mxGeometry x="462.5" y="430" width="80" height="80" as="geometry" />
        </mxCell>
        <mxCell id="JWHBPVoRQYxldGWFaLxb-28" value="" style="edgeStyle=orthogonalEdgeStyle;rounded=0;orthogonalLoop=1;jettySize=auto;html=1;fontSize=12;fillColor=#dae8fc;strokeColor=#6c8ebf;shadow=0;" edge="1" parent="1" source="JWHBPVoRQYxldGWFaLxb-15" target="JWHBPVoRQYxldGWFaLxb-26">
          <mxGeometry relative="1" as="geometry" />
        </mxCell>
        <mxCell id="JWHBPVoRQYxldGWFaLxb-15" value="根据key查找&lt;br&gt;&lt;font color=&quot;#2e1fff&quot;&gt;immutable memtable&lt;/font&gt;" style="whiteSpace=wrap;html=1;fillColor=#dae8fc;strokeColor=#6c8ebf;shadow=0;" vertex="1" parent="1">
          <mxGeometry x="290" y="560" width="120" height="60" as="geometry" />
        </mxCell>
        <mxCell id="JWHBPVoRQYxldGWFaLxb-34" value="" style="edgeStyle=orthogonalEdgeStyle;rounded=0;orthogonalLoop=1;jettySize=auto;html=1;fontSize=12;fillColor=#dae8fc;strokeColor=#6c8ebf;shadow=0;" edge="1" parent="1" source="JWHBPVoRQYxldGWFaLxb-23" target="JWHBPVoRQYxldGWFaLxb-31">
          <mxGeometry relative="1" as="geometry" />
        </mxCell>
        <mxCell id="JWHBPVoRQYxldGWFaLxb-23" value="根据key查找&lt;br&gt;&lt;font color=&quot;#2e1fff&quot;&gt;current Version&lt;/font&gt;" style="whiteSpace=wrap;html=1;fillColor=#dae8fc;strokeColor=#6c8ebf;shadow=0;" vertex="1" parent="1">
          <mxGeometry x="290" y="660" width="120" height="60" as="geometry" />
        </mxCell>
        <mxCell id="JWHBPVoRQYxldGWFaLxb-50" style="edgeStyle=orthogonalEdgeStyle;rounded=0;orthogonalLoop=1;jettySize=auto;html=1;entryX=1;entryY=0.5;entryDx=0;entryDy=0;fontSize=12;fillColor=#dae8fc;strokeColor=#6c8ebf;shadow=0;" edge="1" parent="1" source="JWHBPVoRQYxldGWFaLxb-25" target="JWHBPVoRQYxldGWFaLxb-36">
          <mxGeometry relative="1" as="geometry">
            <mxPoint x="490" y="980" as="targetPoint" />
            <Array as="points">
              <mxPoint x="495" y="990" />
            </Array>
          </mxGeometry>
        </mxCell>
        <mxCell id="JWHBPVoRQYxldGWFaLxb-25" value="检查调度immutable table是否需要后台压缩（compaction）" style="whiteSpace=wrap;html=1;fillColor=#dae8fc;strokeColor=#6c8ebf;shadow=0;" vertex="1" parent="1">
          <mxGeometry x="435" y="850" width="120" height="60" as="geometry" />
        </mxCell>
        <mxCell id="JWHBPVoRQYxldGWFaLxb-29" style="edgeStyle=orthogonalEdgeStyle;rounded=0;orthogonalLoop=1;jettySize=auto;html=1;fontSize=12;fillColor=#dae8fc;strokeColor=#6c8ebf;shadow=0;" edge="1" parent="1" source="JWHBPVoRQYxldGWFaLxb-26" target="JWHBPVoRQYxldGWFaLxb-23">
          <mxGeometry relative="1" as="geometry">
            <Array as="points">
              <mxPoint x="503" y="640" />
              <mxPoint x="350" y="640" />
            </Array>
          </mxGeometry>
        </mxCell>
        <mxCell id="JWHBPVoRQYxldGWFaLxb-30" value="N" style="edgeLabel;html=1;align=center;verticalAlign=middle;resizable=0;points=[];fontSize=12;fillColor=#dae8fc;strokeColor=#6c8ebf;shadow=0;" vertex="1" connectable="0" parent="JWHBPVoRQYxldGWFaLxb-29">
          <mxGeometry x="-0.2055" y="-1" relative="1" as="geometry">
            <mxPoint as="offset" />
          </mxGeometry>
        </mxCell>
        <mxCell id="JWHBPVoRQYxldGWFaLxb-41" style="edgeStyle=orthogonalEdgeStyle;rounded=0;orthogonalLoop=1;jettySize=auto;html=1;fontSize=12;fillColor=#dae8fc;strokeColor=#6c8ebf;shadow=0;" edge="1" parent="1" source="JWHBPVoRQYxldGWFaLxb-26">
          <mxGeometry relative="1" as="geometry">
            <mxPoint x="410" y="780" as="targetPoint" />
            <Array as="points">
              <mxPoint x="600" y="590" />
              <mxPoint x="600" y="780" />
            </Array>
          </mxGeometry>
        </mxCell>
        <mxCell id="JWHBPVoRQYxldGWFaLxb-42" value="Y" style="edgeLabel;html=1;align=center;verticalAlign=middle;resizable=0;points=[];fontSize=12;fillColor=#dae8fc;strokeColor=#6c8ebf;shadow=0;" vertex="1" connectable="0" parent="JWHBPVoRQYxldGWFaLxb-41">
          <mxGeometry x="-0.856" relative="1" as="geometry">
            <mxPoint as="offset" />
          </mxGeometry>
        </mxCell>
        <mxCell id="JWHBPVoRQYxldGWFaLxb-26" value="是否找到" style="rhombus;whiteSpace=wrap;html=1;fillColor=#dae8fc;strokeColor=#6c8ebf;shadow=0;" vertex="1" parent="1">
          <mxGeometry x="462.5" y="550" width="80" height="80" as="geometry" />
        </mxCell>
        <mxCell id="JWHBPVoRQYxldGWFaLxb-45" value="" style="edgeStyle=orthogonalEdgeStyle;rounded=0;orthogonalLoop=1;jettySize=auto;html=1;fontSize=12;fillColor=#dae8fc;strokeColor=#6c8ebf;shadow=0;" edge="1" parent="1" source="JWHBPVoRQYxldGWFaLxb-31" target="JWHBPVoRQYxldGWFaLxb-44">
          <mxGeometry relative="1" as="geometry" />
        </mxCell>
        <mxCell id="JWHBPVoRQYxldGWFaLxb-31" value="加锁&lt;br&gt;&lt;div style=&quot;color: rgb(204, 204, 204); background-color: rgb(31, 31, 31); font-family: Menlo, Monaco, &amp;quot;Courier New&amp;quot;, monospace; font-size: 11px; line-height: 17px;&quot;&gt;mutex_.&lt;span style=&quot;color: #dcdcaa;&quot;&gt;Lock&lt;/span&gt;();&lt;/div&gt;" style="whiteSpace=wrap;html=1;fillColor=#fff2cc;strokeColor=#d6b656;shadow=0;" vertex="1" parent="1">
          <mxGeometry x="290" y="750" width="120" height="60" as="geometry" />
        </mxCell>
        <mxCell id="JWHBPVoRQYxldGWFaLxb-32" value="先解锁全局锁&lt;br&gt;&lt;div style=&quot;color: rgb(204, 204, 204); background-color: rgb(31, 31, 31); font-family: Menlo, Monaco, &amp;quot;Courier New&amp;quot;, monospace; font-size: 11px; line-height: 17px;&quot;&gt;mutex_.&lt;span style=&quot;color: #dcdcaa;&quot;&gt;Unlock&lt;/span&gt;();&lt;/div&gt;" style="whiteSpace=wrap;html=1;fillColor=#fff2cc;strokeColor=#d6b656;shadow=0;" vertex="1" parent="1">
          <mxGeometry x="282.5" y="350" width="137.5" height="50" as="geometry" />
        </mxCell>
        <mxCell id="JWHBPVoRQYxldGWFaLxb-36" value="返回查询状态Status" style="rounded=1;whiteSpace=wrap;html=1;fillColor=#dae8fc;strokeColor=#6c8ebf;shadow=0;" vertex="1" parent="1">
          <mxGeometry x="290" y="961" width="120" height="60" as="geometry" />
        </mxCell>
        <mxCell id="JWHBPVoRQYxldGWFaLxb-46" value="N" style="edgeStyle=orthogonalEdgeStyle;rounded=0;orthogonalLoop=1;jettySize=auto;html=1;fontSize=12;fillColor=#dae8fc;strokeColor=#6c8ebf;shadow=0;" edge="1" parent="1" source="JWHBPVoRQYxldGWFaLxb-44" target="JWHBPVoRQYxldGWFaLxb-36">
          <mxGeometry relative="1" as="geometry" />
        </mxCell>
        <mxCell id="JWHBPVoRQYxldGWFaLxb-47" value="" style="edgeStyle=orthogonalEdgeStyle;rounded=0;orthogonalLoop=1;jettySize=auto;html=1;fontSize=12;fillColor=#dae8fc;strokeColor=#6c8ebf;shadow=0;" edge="1" parent="1" source="JWHBPVoRQYxldGWFaLxb-44" target="JWHBPVoRQYxldGWFaLxb-25">
          <mxGeometry relative="1" as="geometry" />
        </mxCell>
        <mxCell id="JWHBPVoRQYxldGWFaLxb-51" value="Y" style="edgeLabel;html=1;align=center;verticalAlign=middle;resizable=0;points=[];fontSize=12;fillColor=#dae8fc;strokeColor=#6c8ebf;shadow=0;" vertex="1" connectable="0" parent="JWHBPVoRQYxldGWFaLxb-47">
          <mxGeometry x="-0.15" y="4" relative="1" as="geometry">
            <mxPoint as="offset" />
          </mxGeometry>
        </mxCell>
        <mxCell id="JWHBPVoRQYxldGWFaLxb-44" value="若上面查找了current Version" style="rhombus;whiteSpace=wrap;html=1;fillColor=#dae8fc;strokeColor=#6c8ebf;shadow=0;labelBackgroundColor=none;" vertex="1" parent="1">
          <mxGeometry x="305" y="840" width="90" height="80" as="geometry" />
        </mxCell>
        <mxCell id="JWHBPVoRQYxldGWFaLxb-52" value="&lt;div style=&quot;color: rgb(204, 204, 204); background-color: rgb(31, 31, 31); font-family: Menlo, Monaco, &amp;quot;Courier New&amp;quot;, monospace; font-size: 11px; line-height: 17px;&quot;&gt;MaybeScheduleCompaction();&lt;/div&gt;" style="text;strokeColor=none;align=center;fillColor=none;html=1;verticalAlign=middle;whiteSpace=wrap;rounded=0;" vertex="1" parent="1">
          <mxGeometry x="490" y="820" width="60" height="30" as="geometry" />
        </mxCell>
        <mxCell id="JWHBPVoRQYxldGWFaLxb-53" value="查找前:&lt;br&gt;memtable、immutable memtable、current Version三者的引用计数+1" style="text;strokeColor=none;align=left;fillColor=none;html=1;verticalAlign=middle;whiteSpace=wrap;rounded=0;" vertex="1" parent="1">
          <mxGeometry x="80" y="313" width="202.5" height="50" as="geometry" />
        </mxCell>
        <mxCell id="JWHBPVoRQYxldGWFaLxb-54" value="查找后:&lt;br&gt;memtable、immutable memtable、current Version三者的引用计数-1" style="text;strokeColor=none;align=left;fillColor=none;html=1;verticalAlign=middle;whiteSpace=wrap;rounded=0;" vertex="1" parent="1">
          <mxGeometry x="90" y="950" width="202.5" height="50" as="geometry" />
        </mxCell>
      </root>
    </mxGraphModel>
  </diagram>
</mxfile>
